<?xml version="1.0" encoding="utf-8"?>
<!-- Generator: Adobe Illustrator 14.0.0, SVG Export Plug-In . SVG Version: 6.00 Build 43363)  -->
<!DOCTYPE svg PUBLIC "-//W3C//DTD SVG 1.1//EN" "http://www.w3.org/Graphics/SVG/1.1/DTD/svg11.dtd">
<svg version="1.1" id="Ebene_1" xmlns="http://www.w3.org/2000/svg" xmlns:xlink="http://www.w3.org/1999/xlink" x="0px" y="0px"
	 width="1078.446px" height="238.488px" viewBox="0 0 1078.446 238.488" enable-background="new 0 0 1078.446 238.488"
	 xml:space="preserve">
<g>
	<g>
		<defs>
			<rect id="SVGID_1_" x="-12.741" y="-17.112" width="1114.046" height="274.541"/>
		</defs>
		<clipPath id="SVGID_2_">
			<use xlink:href="#SVGID_1_"  overflow="visible"/>
		</clipPath>
		<g clip-path="url(#SVGID_2_)">
			<defs>
				<rect id="SVGID_3_" x="-12.741" y="-17.112" width="1114.046" height="274.541"/>
			</defs>
			<clipPath id="SVGID_4_">
				<use xlink:href="#SVGID_3_"  overflow="visible"/>
			</clipPath>
			<path clip-path="url(#SVGID_4_)" fill="#95BE23" d="M433.788,7.352h-42.83c-0.225,0-0.467,0-0.697,0
				c-1.453,0-2.996,0.071-4.04,1.187c-2.95,2.37-3.638,6.286-4.687,9.648L335.715,171.32h39.881c0,0,3.741-13.888,4.539-15.289
				c0.809-1.398,1.782-2.769,3.038-3.843c3.302-2.874,7.595-4.055,11.8-4.746c3.799-0.619,7.63-0.699,11.484-0.699h28.971
				l7.326,24.577h39.854c0,0-4.407-14.911-6.621-22.296C461.935,101.899,433.788,7.352,433.788,7.352 M392.745,114.026
				c6.897-23.133,6.125-21.443,16.075-52.972h0.72c5.156,16.54,16.044,52.972,16.044,52.972H392.745z M665.785,9.445
				c-2.487,1.408-3.547,4.299-3.962,6.99c-0.483,3.194-0.521,6.437-0.521,9.679v19.41h38.238c0,0-0.026,83.925-0.026,125.796
				c0,0,22.396,0.016,25.173,0c3.305-0.271,6.874-0.388,9.775-2.312c2.697-1.771,3.475-5.212,3.854-8.27
				c0.07-2.595,0.158-5.186,0.158-7.779V45.524h44.84l0.027-38.173H675.774C672.405,7.577,668.772,7.674,665.785,9.445
				 M921.223,111.477V64.113c0-0.636,0-1.259,0-1.879c0-2.14,0.018-4.273,0.018-6.404c0-4.516-0.081-9.03-0.646-13.515
				c-0.995-8.355-3.887-16.816-9.875-22.882c-7.246-7.182-17.279-10.333-26.996-11.947c-8.065-1.286-16.211-1.781-24.368-1.781
				c-4.743,0-9.485,0.171-14.212,0.45c-7.819,0.581-15.744,1.653-23.213,4.226c-5.617,1.871-10.977,4.713-15.235,8.943
				c-4.778,4.668-7.773,10.99-9.195,17.478c-1.568,6.771-1.682,13.702-1.682,20.584c0,1.17,0,2.347,0,3.518
				c0,23.01,0,42.008,0.06,65.079c0.106,9.001,1.27,18.371,5.828,26.303c3.571,6.377,9.408,11.197,15.912,14.14
				c10.035,4.56,21.118,5.842,31.926,6.377c3.289,0.09,6.587,0.162,9.902,0.162c9.829,0,19.685-0.59,29.268-2.837
				c8.721-2.086,17.494-5.949,23.374-13.021c5.414-6.377,7.872-14.799,8.719-23.036c0.372-3.755,0.449-7.522,0.449-11.294
				c0-2.827-0.043-5.66-0.043-8.49C921.212,113.357,921.223,112.412,921.223,111.477 M881.827,125.394
				c-0.359,3.106-1.727,6.42-4.725,7.711c-4.872,1.98-10.233,1.547-15.363,1.655c-3.899,0.325-7.77-0.108-11.656,0
				c-3.784-0.206-7.885-0.206-11.233-2.247c-3.095-2.025-3.772-5.991-4.092-9.426c-0.59-7.059-0.21-14.183-0.272-21.248
				c-0.053-11.091-0.053-18.126,0-29.164c0.062-5.936-0.262-11.827,0.371-17.723c0.316-2.611,0.898-5.398,2.679-7.386
				c1.676-1.816,4.196-2.463,6.561-2.833c7.086-0.859,14.214-0.535,21.299-0.535c4.64,0.364,9.98-0.113,13.772,3.053
				c3.192,3.476,2.874,8.613,3.138,13.003c0.115,16.273,0.055,28.525,0.055,44.797C882.253,111.851,882.666,118.645,881.827,125.394
				 M1069.249,52.325c-0.168-10.063-1.409-20.783-7.416-29.138c-5.677-8.093-15.021-12.388-24.262-14.524
				c-9.882-2.283-19.994-2.958-30.1-2.958c-3.174,0-6.33,0.071-9.484,0.171c-11.032,0.535-22.27,1.708-32.506,6.215
				c-7.31,3.215-13.756,8.839-17.121,16.294c-4.145,8.711-4.524,18.498-4.524,28.048c0,1.125,0,2.265,0,3.391l-0.141,111.497h38.81
				c0,0,0.034-68.675,0.034-104.006c0-1.534-0.027-3.076-0.027-4.604c0-3.823,0.132-7.641,1.079-11.341
				c0.676-2.832,2.767-5.18,5.535-5.917c4.77-1.388,9.803-1.187,14.75-1.227c0.52,0,1.048,0,1.588,0
				c1.639,0,3.271-0.023,4.918-0.023c3.8,0,7.6,0.104,11.374,0.711c2.943,0.43,6.074,1.978,7.112,5.017
				c1.518,4.003,1.308,8.391,1.476,12.573V171.32l29.367,0.009c2.89-0.162,6.108-1.345,7.645-3.983c2-3.491,1.843-7.673,1.894-11.53
				C1069.329,140.546,1069.238,57.99,1069.249,52.325 M617.083,7.352c-3.299,0.27-6.889,0.377-9.771,2.312
				c-2.696,1.784-3.483,5.224-3.854,8.268c-0.076,2.593-0.157,5.185-0.157,7.784V133.14l0,0c0,14.071,0,27.491,0,38.181
				c0.009,0,22.393,0.016,25.169,0c3.317-0.271,6.879-0.388,9.787-2.312c2.69-1.771,3.484-5.212,3.845-8.27
				c0.08-2.595,0.159-5.186,0.159-7.779V45.524l0,0c0-14.063,0-27.49,0-38.173C642.251,7.352,619.858,7.333,617.083,7.352
				 M543.325,133.069v-0.01h-7.451V45.524V7.352c-0.026,0-22.394-0.019-25.18,0c-3.311,0.27-6.891,0.377-9.773,2.312
				c-2.698,1.784-3.482,5.224-3.861,8.268c-0.07,2.593-0.15,5.185-0.15,7.784V133.14l0,0c0,14.071,0,27.491,0,38.181
				c0,0,22.398,0.016,25.186,0h40.643c2.574,0,5.096-0.09,7.634-0.171c2.998-0.369,6.367-1.174,8.104-3.912
				c1.888-2.96,1.998-6.611,2.266-9.979c0.017-2.842,0-24.189,0-24.199C570.266,133.06,557.113,133.069,543.325,133.069
				 M315.59,7.352l-33.197,110.267h-0.732L248.441,7.352h-39.868l45.811,153.132c1.062,3.368,1.728,7.278,4.689,9.645
				c1.041,1.11,2.588,1.192,4.029,1.192h0.701h42.821L355.463,7.352H315.59z M259.083,170.11v-0.01l0,0V170.11z"/>
			<path opacity="0.7" clip-path="url(#SVGID_4_)" fill="#95BE23" d="M42.186,145.195c-11.9-14.681-32.9-35.785-32.604-55.785
				c0.422-29.38,25.576-50.433,47.52-66.106c8.641,7.721,18.97,15.819,25.991,25.212C67.63,55.017,50.12,75.957,49.965,89.347
				c-0.061,5.198,2.394,11.232,6.291,17.086C49.653,117.898,46.02,132.18,42.186,145.195"/>
			<path opacity="0.85" clip-path="url(#SVGID_4_)" fill="#95BE23" d="M92.347,173.116c-0.234,0-0.473,0-0.696-0.008
				c-14.17-0.297-27.318-7.217-37.935-16.531c1.746-12.307,3.236-28.936,9.103-41.801c8.896,9.664,20.601,17.315,29.148,17.412
				c0.061,0,0.124,0,0.198,0c10.1,0,23.302-9.929,32.153-21.306c16.75-0.911,34.821-8.812,49.062-14.204
				C164.084,124.437,126.065,173.116,92.347,173.116"/>
			<path clip-path="url(#SVGID_4_)" fill="#95BE23" d="M133.979,89.347c-0.037,3.471-1.249,7.459-3.295,11.577
				c15.144-3.016,31.065-12.719,42.697-18.79c-6.65-31.676-51.068-75.916-81.73-76.429C79.43,5.507,72.122,11.613,65.426,16.847
				c9.291,8.822,19.817,18.62,26.981,29.682C108.207,47.171,134.17,72.562,133.979,89.347"/>
			<polygon clip-path="url(#SVGID_4_)" fill="#95BE23" points="405.266,201.866 428.18,201.866 428.18,205.522 409.336,205.522 
				409.336,215.983 426.448,215.983 426.448,219.501 409.336,219.501 409.336,231.117 428.719,231.117 428.719,234.961 
				405.266,234.961 			"/>
			<path clip-path="url(#SVGID_4_)" fill="#95BE23" d="M432.932,201.866h3.695v4.633h-3.695V201.866z M432.932,211.03h3.695v23.931
				h-3.695V211.03z"/>
			<path clip-path="url(#SVGID_4_)" fill="#95BE23" d="M445.293,214.183h0.08c1.693-2.268,4.056-3.709,7.45-3.709
				c4.909,0,7.89,2.729,7.89,7.684v16.804h-3.676v-16.479c0-3.098-1.982-4.855-5.309-4.855c-3.711,0-6.436,2.678-6.436,6.617v14.718
				h-3.687V211.03h3.687V214.183z"/>
			<path clip-path="url(#SVGID_4_)" fill="#95BE23" d="M472.249,201.866h16.787c3.174,0,5.547,0.789,7.266,2.124
				c1.939,1.532,3.085,3.808,3.085,6.528c0,3.151-1.321,5.14-4.038,6.339v0.146c3.535,1.154,5.581,4.217,5.581,7.962
				c0,3.561-1.42,6.241-3.72,7.909c-1.967,1.393-4.497,2.087-7.855,2.087h-17.105V201.866z M487.442,214.736
				c1.814,0,3.041-0.886,3.041-2.64c0-1.713-1.262-2.734-3.086-2.734h-5.846v5.374H487.442z M488.305,227.366
				c2.053,0,3.455-1.247,3.455-3.233c0-2.135-1.551-3.201-3.509-3.201h-6.7v6.435H488.305z"/>
			<path clip-path="url(#SVGID_4_)" fill="#95BE23" d="M518.356,234.961v-3.054h-0.133c-1.773,2.449-4.056,3.795-7.221,3.795
				c-5.543,0-8.257-3.708-8.257-9.123v-15.221h8.573v13.139c0,2.455,1.031,3.747,3.077,3.747c2.24,0,3.554-1.615,3.554-4.155v-12.73
				h8.578v23.603H518.356z"/>
			<path clip-path="url(#SVGID_4_)" fill="#95BE23" d="M537.778,214.923h0.141c1.852-2.969,4.083-4.08,7.037-4.08
				c0.688,0,1.136,0.098,1.399,0.241v7.438h-0.176c-5.033-0.876-7.988,1.435-7.988,6.767v9.673h-8.577v-23.603h8.164V214.923z"/>
			<path clip-path="url(#SVGID_4_)" fill="#95BE23" d="M547.23,223.111c0-7.404,4.169-12.495,10.34-12.495
				c3.316,0,4.946,1.247,6.437,3.234h0.14v-11.984h8.581v33.095h-8.166v-3.287h-0.098c-1.488,2.639-3.938,4.073-6.794,4.073
				C551.662,235.747,547.23,231.26,547.23,223.111 M564.386,222.977c0-3.385-1.728-6.062-4.276-6.062
				c-2.496,0-4.18,2.444-4.18,6.062c0,3.606,1.64,6.153,4.18,6.153C562.659,229.13,564.386,226.4,564.386,222.977"/>
			<path clip-path="url(#SVGID_4_)" fill="#95BE23" d="M589.988,232.229h-0.105c-1.498,2.084-3.855,3.34-7.396,3.34
				c-4.443,0-7.714-2.464-7.714-7.083c0-5.234,3.942-6.761,8.4-7.266c4.893-0.562,6.207-1.164,6.207-2.647
				c0-1.292-0.592-2.269-2.45-2.269c-1.86,0-2.812,1.107-3.023,2.82h-8.129c0.167-4.663,3.721-8.508,10.976-8.508
				c3.534,0,6.489,0.742,8.394,2.178c1.902,1.519,2.76,3.332,2.76,6.474v8.938c0,1.526,0.598,1.67,1.473,1.526h0.124v4.949
				c-0.636,0.279-2.172,0.697-3.772,0.697C592.28,235.379,590.519,234.408,589.988,232.229 M589.6,226.4v-2.092
				c-0.812,0.423-1.851,0.792-3.296,1.11c-2.495,0.559-3.271,1.301-3.271,2.691c0,1.575,1.268,2.272,2.672,2.272
				C587.704,230.383,589.6,229.218,589.6,226.4"/>
			<path clip-path="url(#SVGID_4_)" fill="#95BE23" d="M599.916,224.407h9.706c0.318,2.636,2.321,3.889,5.441,3.889
				c1.877,0,4.143-0.741,4.143-2.733c0-1.987-2.178-2.497-6.18-3.519c-5.44-1.387-12.027-3.278-12.027-10.314
				c0-7.597,6.094-10.465,13.395-10.465c6.699,0,12.889,2.868,13.02,10.094h-9.388c-0.273-1.807-1.544-2.962-4.125-2.962
				c-2.1,0-3.535,0.966-3.535,2.311c0,1.942,2.759,2.222,7.616,3.422c5.439,1.353,10.889,3.517,10.889,10.559
				c0,7.22-6.304,11.06-13.967,11.06C606.44,235.747,600.047,232.048,599.916,224.407"/>
			<path clip-path="url(#SVGID_4_)" fill="#95BE23" d="M630.317,223.208c0-7.175,4.998-12.546,12.711-12.546
				c7.724,0,12.617,5.371,12.617,12.546s-4.894,12.494-12.617,12.494C635.315,235.702,630.317,230.383,630.317,223.208
				 M646.923,223.208c0-3.985-1.347-6.672-3.982-6.672c-2.629,0-3.908,2.687-3.908,6.672c0,3.978,1.279,6.668,3.908,6.668
				C645.577,229.876,646.923,227.186,646.923,223.208"/>
			<rect x="657.787" y="201.866" clip-path="url(#SVGID_4_)" fill="#95BE23" width="8.789" height="33.095"/>
			<path clip-path="url(#SVGID_4_)" fill="#95BE23" d="M685.108,234.961v-3.054h-0.141c-1.771,2.449-4.038,3.795-7.229,3.795
				c-5.528,0-8.245-3.708-8.245-9.123v-15.221h8.562v13.139c0,2.455,1.059,3.747,3.104,3.747c2.23,0,3.534-1.615,3.534-4.155v-12.73
				h8.57v23.603H685.108z"/>
			<path clip-path="url(#SVGID_4_)" fill="#95BE23" d="M695.133,211.358h2.998v-7.638h8.394v7.638h4.407v5.28h-4.407v9.572
				c0,2.364,1.628,2.409,4.311,2.22v6.44c-1.323,0.318-2.683,0.552-4.226,0.552c-5.624,0-8.479-1.618-8.479-7.261v-11.523h-2.998
				V211.358z"/>
			<path clip-path="url(#SVGID_4_)" fill="#95BE23" d="M713.163,201.866h8.562v6.621h-8.562V201.866z M713.163,211.358h8.562v23.603
				h-8.562V211.358z"/>
			<path clip-path="url(#SVGID_4_)" fill="#95BE23" d="M723.875,223.208c0-7.175,4.979-12.546,12.693-12.546
				c7.706,0,12.618,5.371,12.618,12.546s-4.912,12.494-12.618,12.494C728.855,235.702,723.875,230.383,723.875,223.208
				 M740.475,223.208c0-3.985-1.375-6.672-4.004-6.672c-2.625,0-3.896,2.687-3.896,6.672c0,3.978,1.271,6.668,3.896,6.668
				C739.1,229.876,740.475,227.186,740.475,223.208"/>
			<path clip-path="url(#SVGID_4_)" fill="#95BE23" d="M759.483,214.598h0.143c1.86-2.592,4.225-3.981,7.439-3.981
				c5.36,0,8.129,3.656,8.129,9.071v15.273h-8.578v-13.147c0-2.455-1.004-4.077-3.227-4.077c-2.177,0-3.49,1.951-3.49,4.494v12.73
				h-8.577v-23.603h8.161V214.598z"/>
			<path clip-path="url(#SVGID_4_)" fill="#95BE23" d="M776.737,227.321h8.209c0.141,1.941,1.322,3.107,3.501,3.107
				c1.682,0,2.955-0.603,2.955-2.043c0-1.941-2.684-2.175-5.672-2.634c-3.905-0.605-8.402-1.663-8.402-7.595
				c0-4.856,4.85-7.541,10.527-7.541c7.034,0,10.712,2.685,11.037,7.312h-8.084c-0.219-1.758-1.499-2.136-2.9-2.136
				c-1.279,0-2.459,0.511-2.459,1.722c0,1.331,2.143,1.618,4.762,1.986c4.223,0.602,9.582,1.579,9.582,8.148
				c0,5.642-5.045,8.098-11.39,8.098C781.542,235.747,776.781,232.739,776.737,227.321"/>
			<path clip-path="url(#SVGID_4_)" fill="#95BE23" d="M810.009,224.263v-22.396h4.074v21.988c0,5.643,3.13,8.053,8.49,8.053
				c5.129,0,8.218-2.41,8.218-8.053v-21.988h4.071v22.396c0,8.01-5.483,11.205-12.422,11.205
				C815.354,235.468,810.009,232.272,810.009,224.263"/>
			<path clip-path="url(#SVGID_4_)" fill="#95BE23" d="M843.539,214.183h0.099c1.666-2.268,4.029-3.709,7.439-3.709
				c4.894,0,7.899,2.729,7.899,7.684v16.804h-3.691v-16.479c0-3.098-1.976-4.855-5.301-4.855c-3.72,0-6.445,2.678-6.445,6.617
				v14.718h-3.676V211.03h3.676V214.183z"/>
			<path clip-path="url(#SVGID_4_)" fill="#95BE23" d="M861.87,211.03h3.411v-7.539h3.669v7.539h4.555v3.053h-4.555v15.554
				c0,1.667,0.872,2.222,2.368,2.222c0.732,0,1.554-0.185,1.951-0.329h0.13v3.251c-0.854,0.181-1.858,0.323-2.942,0.323
				c-2.99,0-5.176-1.253-5.176-4.63v-16.391h-3.411V211.03z"/>
			<path clip-path="url(#SVGID_4_)" fill="#95BE23" d="M875.764,223.022c0-6.941,4.459-12.593,11.125-12.593
				c7.028,0,10.801,5.554,10.801,13.466h-18.152c0.273,4.865,2.864,8.564,7.582,8.564c3.402,0,5.668-1.663,6.479-4.905h3.589
				c-1.095,5.14-4.762,8.058-10.068,8.058C879.941,235.612,875.764,229.961,875.764,223.022 M879.625,221.08h14.125
				c-0.238-4.776-2.637-7.688-6.861-7.688C882.526,213.392,880.172,216.725,879.625,221.08"/>
			<path clip-path="url(#SVGID_4_)" fill="#95BE23" d="M904.956,215.014h0.085c1.405-2.318,3.863-4.261,6.994-4.261
				c0.678,0,1.038,0.09,1.489,0.277v3.607h-0.131c-0.547-0.177-0.909-0.221-1.638-0.221c-3.636,0-6.8,2.773-6.8,7.262v13.282h-3.685
				V211.03h3.685V215.014z"/>
			<path clip-path="url(#SVGID_4_)" fill="#95BE23" d="M920.516,214.183h0.086c1.685-2.268,4.05-3.709,7.449-3.709
				c4.906,0,7.891,2.729,7.891,7.684v16.804h-3.666v-16.479c0-3.098-1.99-4.855-5.317-4.855c-3.719,0-6.442,2.678-6.442,6.617
				v14.718h-3.677V211.03h3.677V214.183z"/>
			<path clip-path="url(#SVGID_4_)" fill="#95BE23" d="M939.49,223.022c0-6.941,4.443-12.593,11.116-12.593
				c7.036,0,10.791,5.554,10.791,13.466h-18.144c0.283,4.865,2.854,8.564,7.581,8.564c3.393,0,5.678-1.663,6.49-4.905h3.579
				c-1.076,5.14-4.761,8.058-10.069,8.058C943.669,235.612,939.49,229.961,939.49,223.022 M943.351,221.08h14.104
				c-0.229-4.776-2.626-7.688-6.849-7.688C946.251,213.392,943.887,216.725,943.351,221.08"/>
			<path clip-path="url(#SVGID_4_)" fill="#95BE23" d="M968.672,214.183h0.098c1.674-2.268,4.027-3.709,7.438-3.709
				c4.894,0,7.883,2.729,7.883,7.684v16.804h-3.669v-16.479c0-3.098-1.994-4.855-5.307-4.855c-3.72,0-6.443,2.678-6.443,6.617
				v14.718h-3.688v-33.095h3.688V214.183z"/>
			<path clip-path="url(#SVGID_4_)" fill="#95BE23" d="M988.958,211.03h3.677v3.431h0.088c1.454-2.31,3.948-3.987,6.905-3.987
				c2.854,0,5.129,1.48,6.124,4.263h0.099c1.488-2.73,4.309-4.263,7.158-4.263c4.172,0,7.123,2.729,7.123,7.684v16.804h-3.668
				v-16.623c0-2.954-1.956-4.712-4.311-4.712c-3.04,0-5.768,2.678-5.768,6.43v14.905h-3.675v-16.623
				c0-2.954-1.628-4.712-4.038-4.712c-2.856,0-6.038,2.678-6.038,6.43v14.905h-3.677V211.03z"/>
			<path clip-path="url(#SVGID_4_)" fill="#95BE23" d="M1023.676,223.022c0-6.941,4.454-12.593,11.117-12.593
				c7.035,0,10.801,5.554,10.801,13.466h-18.164c0.274,4.865,2.867,8.564,7.595,8.564c3.401,0,5.668-1.663,6.486-4.905h3.589
				c-1.092,5.14-4.764,8.058-10.075,8.058C1027.856,235.612,1023.676,229.961,1023.676,223.022 M1027.536,221.08h14.116
				c-0.228-4.776-2.644-7.688-6.858-7.688C1030.439,213.392,1028.083,216.725,1027.536,221.08"/>
			<path clip-path="url(#SVGID_4_)" fill="#95BE23" d="M1052.859,214.183h0.096c1.678-2.268,4.038-3.709,7.434-3.709
				c4.901,0,7.898,2.729,7.898,7.684v16.804h-3.674v-16.479c0-3.098-1.993-4.855-5.309-4.855c-3.729,0-6.445,2.678-6.445,6.617
				v14.718h-3.676V211.03h3.676V214.183z"/>
		</g>
	</g>
</g>
</svg>
